# xmcd
#
# Track frame offsets:
# 150
# 14635
# 30625
# 47347
# 65002
# 82987
# 99362
# 113122
# 122980
# 136402
# 151817
# 163935
#
# Disc length: 2443 seconds
#
#
# Revision: 0
# Processed by: cddbd v1.5.1PL0 Copyright (c) Steve Scherf et al.
# Submitted via: FreeRIP 2.92 
#
DISCID=9809890c
DTITLE=Blue Monday Blues Band - So Mad (About You)
DYEAR=1900
DGENRE=Blues
TTITLE0=Dust My Broom
TTITLE1=So Mad
TTITLE2=Low Down Rotten
TTITLE3=Standing Around Crying
TTITLE4=Who
TTITLE5=Someday, Someway
TTITLE6=Talk To Me Baby
TTITLE7=Bullfrog Boogie
TTITLE8=Checking On My Babe
TTITLE9=Death Letter
TTITLE10=Harp Attack
TTITLE11=Bring It On Home
EXTD=
EXTT0=
EXTT1=
EXTT2=
EXTT3=
EXTT4=
EXTT5=
EXTT6=
EXTT7=
EXTT8=
EXTT9=
EXTT10=
EXTT11=
PLAYORDER=
